<svg xmlns="http://www.w3.org/2000/svg" viewBox="0 0 1440 1024" preserveAspectRatio="xMidYMid slice">
  <g fill="none" stroke="#159c8f" stroke-width="2.4" stroke-opacity="0.55" stroke-linecap="round" stroke-linejoin="round">
    <!-- Molécula (arriba izquierda) -->
    <g transform="translate(160,160)">
      <path d="M8 -4 62 -27 M9 4 52 50 M-8 6 -47 41 M67 -22 58 46"/>
      <circle cx="0" cy="0" r="11"/><circle cx="70" cy="-30" r="11"/><circle cx="60" cy="55" r="11"/><circle cx="-55" cy="45" r="11"/>
    </g>
    <!-- Átomo (arriba derecha) -->
    <g transform="translate(1200,175)">
      <ellipse cx="0" cy="0" rx="62" ry="24"/>
      <ellipse cx="0" cy="0" rx="62" ry="24" transform="rotate(60)"/>
      <ellipse cx="0" cy="0" rx="62" ry="24" transform="rotate(120)"/>
      <circle cx="0" cy="0" r="7" fill="#159c8f" stroke="none" fill-opacity="0.5"/>
    </g>
    <!-- Pulso ECG (banda media) -->
    <path d="M110 512 h190 l28 -74 26 158 30 -244 28 316 30 -156 h210 l24 -40 22 80 h210"/>
    <!-- Doble hélice de ADN (izquierda) -->
    <g transform="translate(240,650)">
      <path d="M0 0 C 60 30 60 90 0 120 C -60 150 -60 210 0 240 C 60 270 60 330 0 360"/>
      <path d="M60 0 C 0 30 0 90 60 120 C 120 150 120 210 60 240 C 0 270 0 330 60 360"/>
      <path d="M8 24 52 24 M52 96 8 96 M8 144 52 144 M52 216 8 216 M8 264 52 264 M52 336 8 336" stroke-opacity="0.4"/>
    </g>
    <!-- Lupa (evidencia, derecha) -->
    <g transform="translate(1130,570)">
      <circle cx="0" cy="0" r="46"/><path d="M33 33 72 72"/>
      <path d="M-18 0 h36 M0 -18 v36" stroke-opacity="0.4"/>
    </g>
    <!-- Matraz (abajo izquierda) -->
    <g transform="translate(190,880)">
      <path d="M-14 -50 h28 M-10 -50 v33 L-35 22 a11 11 0 0 0 10 16 h50 a11 11 0 0 0 10 -16 L10 -17 v-33"/>
      <path d="M-25 10 h50" stroke-opacity="0.4"/>
    </g>
    <!-- Anillo bencénico (abajo centro) -->
    <g transform="translate(770,900)">
      <path d="M0 -34 30 -17 30 17 0 34 -30 17 -30 -17 Z"/>
      <circle cx="0" cy="0" r="16" stroke-opacity="0.35"/>
    </g>
    <!-- Check de evidencia (abajo derecha) -->
    <g transform="translate(1210,890)">
      <circle cx="0" cy="0" r="31"/><path d="M-14 2 -3 13 16 -11"/>
    </g>
    <!-- Cruces y puntos dispersos -->
    <path d="M540 235 h22 M551 224 v22"/>
    <path d="M1000 390 h22 M1011 379 v22"/>
    <path d="M430 800 h20 M440 790 v20"/>
    <circle cx="650" cy="300" r="4.5" fill="#159c8f" stroke="none" fill-opacity="0.4"/>
    <circle cx="1050" cy="740" r="4.5" fill="#159c8f" stroke="none" fill-opacity="0.4"/>
    <circle cx="315" cy="455" r="4.5" fill="#159c8f" stroke="none" fill-opacity="0.4"/>
    <circle cx="900" cy="620" r="4.5" fill="#159c8f" stroke="none" fill-opacity="0.4"/>
  </g>
</svg>
